<svg viewBox="0 0 16 16" xmlns="http://www.w3.org/2000/svg">
	<path stroke-width="0" d="M2.72534 3.02538C1.52689 3.90724 1.4387 5.43723 1.56089 6.11423C1.10086 5.90267 0.125781 5.2409 0.00829366 3.66008C-0.156805 1.43864 2.17599 0 4.06231 0C6.30495 0 8.11266 0.677007 9.71205 3.15232C10.6006 4.52749 10.6824 7.1509 10.6177 7.70097C10.3374 6.41043 9.66892 4.99916 8.31039 3.7447C6.95187 2.49025 4.27795 1.88293 2.72534 3.02538Z" transform="translate(5.36517 2.11566)" fill="#4FB0F4"/>
	<path stroke-width="0" d="M2.67429 3.08316C1.49829 3.98186 1.41175 5.54106 1.53165 6.231C1.08024 6.01539 0.123425 5.34099 0.00813829 3.72998C-0.153867 1.46612 2.13523 0 3.98621 0C6.18684 0 7.96068 0.689936 9.53011 3.21252C10.402 4.61396 10.4823 7.28747 10.4188 7.84804C10.1437 6.53285 9.48779 5.09463 8.15471 3.81622C6.82164 2.5378 4.1978 1.91889 2.67429 3.08316Z" transform="matrix(-0.0927776 0.995687 -0.996002 -0.0893336 14.3524 5.60941)" fill="#FF9500"/>
	<path stroke-width="0" d="M2.72525 3.02549C1.52684 3.90739 1.43865 5.43742 1.56084 6.11446C1.10083 5.90288 0.125777 5.24109 0.00829337 3.66021C-0.156799 1.43869 2.17591 0 4.06216 0C6.30473 0 8.11238 0.677032 9.71171 3.15244C10.6002 4.52766 10.682 7.15116 10.6174 7.70125C10.337 6.41066 9.66858 4.99934 8.3101 3.74484C6.95163 2.49034 4.2778 1.883 2.72525 3.02549Z" transform="matrix(-0.999103 -0.0423532 0.0439968 -0.999032 10.6249 13.5828)" fill="#FFC123"/>
	<path stroke-width="0" d="M2.67387 3.08362C1.49805 3.98246 1.41153 5.5419 1.53141 6.23194C1.08007 6.0163 0.123406 5.34179 0.00813702 3.73054C-0.153843 1.46634 2.13489 0 3.98558 0C6.18587 0 7.95944 0.69004 9.52861 3.21301C10.4004 4.61465 10.4807 7.28857 10.4172 7.84922C10.1422 6.53383 9.4863 5.0954 8.15343 3.81679C6.82057 2.53819 4.19715 1.91918 2.67387 3.08362Z" transform="matrix(0.0153619 -0.999882 0.999891 0.0147871 1.94482 10.4327)" fill="#53CC59"/>
</svg>
